<svg width="14" height="15" viewBox="0 0 14 15" fill="none" xmlns="http://www.w3.org/2000/svg">
<path fill-rule="evenodd" clip-rule="evenodd" d="M0 7.94446C0 11.8445 3.1 14.9445 7 14.9445C10.9 14.9445 14 11.8445 14 7.94446C14 4.04446 10.9 0.944458 7 0.944458C3.1 0.944458 0 4.04446 0 7.94446ZM5.8 4.64446L8.7 7.54446C8.8 7.64446 8.9 7.84446 8.9 7.94446C8.9 8.04446 8.8 8.14446 8.6 8.24446L5.7 11.1445C5.6 11.3445 5.3 11.3445 5.2 11.1445C5 11.0445 5 10.8445 5.2 10.6445L8 7.94446L5.3 5.14446C5.1 5.04446 5.1 4.84446 5.3 4.64446C5.4 4.44446 5.7 4.44446 5.8 4.64446Z" fill="#484764"/>
</svg>
