<svg width="30" height="31" viewBox="0 0 30 31" fill="none" xmlns="http://www.w3.org/2000/svg">
<path fill-rule="evenodd" clip-rule="evenodd" d="M5.012 0.60968H9.0072C11.6963 0.60968 14.0012 2.83777 14.0012 5.60368V14.5929H5.012C2.16927 14.5929 0.0180054 12.3648 0.0180054 9.59888V5.60368C0.0180054 2.76094 2.2461 0.60968 5.012 0.60968ZM5.012 12.5953H12.0036V5.60368C12.0036 3.99023 10.6206 2.60728 9.0072 2.60728H5.012C3.39856 2.60728 2.0156 3.99023 2.0156 5.60368V9.59888C2.0156 11.2123 3.39856 12.5953 5.012 12.5953ZM0.0180054 21.5845V25.5797C0.0180054 28.3456 2.16927 30.5737 5.012 30.5737H9.0072C11.7731 30.5737 14.0012 28.4224 14.0012 25.5797V16.5905H5.012C2.2461 16.5905 0.0180054 18.8954 0.0180054 21.5845ZM9.0072 28.5761C10.6206 28.5761 12.0036 27.1931 12.0036 25.5797V18.5881H5.012C3.39856 18.5881 2.0156 19.971 2.0156 21.5845V25.5797C2.0156 27.1931 3.39856 28.5761 5.012 28.5761H9.0072Z" fill="#1F1A30"/>
<path fill-rule="evenodd" clip-rule="evenodd" d="M20.9928 0.60968H24.988C27.7539 0.60968 29.982 2.83777 29.982 5.60368V9.59888C29.982 12.4416 27.7539 14.5929 24.988 14.5929H15.9988V5.60368C15.9988 2.76094 18.2269 0.60968 20.9928 0.60968ZM24.988 12.5953C26.6014 12.5953 27.9844 11.2123 27.9844 9.59888L28.0612 5.60368C28.0612 3.9134 26.6783 2.60728 24.988 2.60728H20.9928C19.3794 2.60728 17.9964 3.99023 17.9964 5.60368V12.5953H24.988Z" fill="#FFC501"/>
<path fill-rule="evenodd" clip-rule="evenodd" d="M15.9988 16.5905H24.988C27.7539 16.5905 29.982 18.8954 29.982 21.5845V25.5797C29.982 28.4224 27.7539 30.5737 24.988 30.5737H20.9928C18.1501 30.5737 15.9988 28.3456 15.9988 25.5797V16.5905ZM24.988 28.5761C26.6014 28.5761 27.9844 27.1931 27.9844 25.5797V21.5845C27.9844 19.971 26.6014 18.5881 24.988 18.5881H17.9964V25.5797C17.9964 27.1931 19.3794 28.5761 20.9928 28.5761H24.988Z" fill="#1F1A30"/>
</svg>
