<svg width="31" height="32" viewBox="0 0 31 32" fill="none" xmlns="http://www.w3.org/2000/svg">
<path fill-rule="evenodd" clip-rule="evenodd" d="M15.8157 0.773164L29.8185 8.58156H29.8173C30.1889 8.78873 30.4231 9.1772 30.4327 9.60257C30.4423 10.0279 30.226 10.4266 29.8641 10.6504L15.8637 19.306C15.4769 19.5452 14.9881 19.5452 14.6013 19.306L0.600897 10.6504C0.238891 10.4268 0.0223271 10.0283 0.031703 9.60292C0.0410788 9.17755 0.274993 8.78895 0.646497 8.58156L14.6469 0.773164C15.0102 0.570607 15.4524 0.570607 15.8157 0.773164ZM15.2325 16.8736L26.8641 9.68196L15.2325 3.19476L3.6009 9.68196L15.2325 16.8736Z" fill="#1F1A30"/>
<path d="M28.6017 14.6071C29.1424 14.2701 29.8521 14.4144 30.2183 14.9356C30.5845 15.4569 30.4796 16.1735 29.9793 16.5679L29.8641 16.6483L15.8637 25.3039C15.5224 25.515 15.0982 25.5416 14.7333 25.3747L14.6013 25.3027L0.600904 16.6483C0.0582595 16.315 -0.129506 15.6158 0.17314 15.0555C0.475786 14.4952 1.16343 14.2688 1.7397 14.5399L1.8621 14.6059L15.2325 22.8715L28.6017 14.6059V14.6071Z" fill="#FFC501"/>
<path d="M28.6017 20.6051C29.1424 20.2682 29.8521 20.4124 30.2183 20.9337C30.5845 21.4549 30.4796 22.1715 29.9793 22.5659L29.8641 22.6463L15.8637 31.3019C15.5224 31.513 15.0982 31.5396 14.7333 31.3727L14.6013 31.3007L0.600904 22.6463C0.0582595 22.313 -0.129506 21.6138 0.17314 21.0535C0.475786 20.4932 1.16343 20.2669 1.7397 20.5379L1.8621 20.6039L15.2325 28.8695L28.6017 20.6039V20.6051Z" fill="#1F1A30"/>
</svg>
